<?xml version="1.0" encoding="utf-8"?>
<!-- Generator: Adobe Illustrator 16.0.0, SVG Export Plug-In . SVG Version: 6.00 Build 0)  -->
<!DOCTYPE svg PUBLIC "-//W3C//DTD SVG 1.1//EN" "http://www.w3.org/Graphics/SVG/1.1/DTD/svg11.dtd">
<svg version="1.1" id="Layer_1" xmlns="http://www.w3.org/2000/svg" xmlns:xlink="http://www.w3.org/1999/xlink" x="0px" y="0px"
	 width="8px" height="5px" viewBox="0 0 8 5" enable-background="new 0 0 8 5" xml:space="preserve">
<g>
	<path fill="#8D8D8D" d="M7.815,0.839L4.128,4.524C4.081,4.571,4.01,4.603,3.947,4.603c-0.063,0-0.135-0.031-0.182-0.078L0.08,0.839
		C0.032,0.791,0,0.72,0,0.657s0.032-0.134,0.08-0.182L0.475,0.08C0.522,0.032,0.586,0,0.657,0C0.72,0,0.791,0.032,0.839,0.08
		l3.108,3.109L7.054,0.08C7.103,0.032,7.174,0,7.236,0c0.064,0,0.136,0.032,0.183,0.08l0.396,0.395
		c0.046,0.048,0.078,0.119,0.078,0.182S7.861,0.791,7.815,0.839z"/>
</g>
</svg>
